<svg xmlns="http://www.w3.org/2000/svg" viewBox="0 0 503.8 503.8"><title>instagram</title><path d="M256,49.5c67.3,0,75.2.3,101.8,1.5,24.6,1.1,37.9,5.2,46.8,8.7a78.1,78.1,0,0,1,29,18.8,78.1,78.1,0,0,1,18.8,29c3.4,8.9,7.6,22.2,8.7,46.8,1.2,26.6,1.5,34.5,1.5,101.8s-0.3,75.2-1.5,101.8c-1.1,24.6-5.2,37.9-8.7,46.8a83.4,83.4,0,0,1-47.8,47.8c-8.9,3.4-22.2,7.6-46.8,8.7-26.6,1.2-34.5,1.5-101.8,1.5s-75.2-.3-101.8-1.5c-24.6-1.1-37.9-5.2-46.8-8.7a78.1,78.1,0,0,1-29-18.8,78.1,78.1,0,0,1-18.8-29c-3.4-8.9-7.6-22.2-8.7-46.8-1.2-26.6-1.5-34.5-1.5-101.8s0.3-75.2,1.5-101.8c1.1-24.6,5.2-37.9,8.7-46.8a78.1,78.1,0,0,1,18.8-29,78.1,78.1,0,0,1,29-18.8c8.9-3.4,22.2-7.6,46.8-8.7,26.6-1.2,34.5-1.5,101.8-1.5m0-45.4c-68.4,0-77,.3-103.9,1.5S107,11.1,91,17.3A123.5,123.5,0,0,0,46.4,46.4,123.5,123.5,0,0,0,17.3,91c-6.2,16-10.5,34.3-11.7,61.2S4.1,187.6,4.1,256s0.3,77,1.5,103.9S11.1,405,17.3,421a123.5,123.5,0,0,0,29.1,44.6A123.5,123.5,0,0,0,91,494.7c16,6.2,34.3,10.5,61.2,11.7s35.4,1.5,103.9,1.5,77-.3,103.9-1.5,45.1-5.5,61.2-11.7A128.8,128.8,0,0,0,494.7,421c6.2-16,10.5-34.3,11.7-61.2s1.5-35.4,1.5-103.9-0.3-77-1.5-103.9S500.9,107,494.7,91a123.5,123.5,0,0,0-29.1-44.6A123.5,123.5,0,0,0,421,17.3c-16-6.2-34.3-10.5-61.2-11.7S324.4,4.1,256,4.1h0Z" transform="translate(-4.1 -4.1)" fill="#fff"/><path d="M256,126.6A129.4,129.4,0,1,0,385.4,256,129.4,129.4,0,0,0,256,126.6ZM256,340a84,84,0,1,1,84-84A84,84,0,0,1,256,340Z" transform="translate(-4.1 -4.1)" fill="#fff"/><circle cx="386.4" cy="117.4" r="30.2" fill="#fff"/></svg>